<svg width="165" height="59" viewBox="0 0 165 59" fill="none" xmlns="http://www.w3.org/2000/svg">
<g clip-path="url(#clip0_5_15)">
<path d="M158.317 36.3497L164.938 42.9804C164.98 42.7895 165.001 42.5947 165.001 42.3993V2.83673C165 2.10012 164.707 1.39402 164.186 0.873285C163.666 0.352552 162.96 0.0596993 162.223 0.0589569H142.071L133.729 8.20841L131.651 6.12543L137.743 0.0575562H122.684C121.948 0.0582999 121.242 0.351386 120.721 0.872463C120.2 1.39354 119.908 2.10001 119.907 2.83673V42.3923C119.908 43.1288 120.201 43.8349 120.721 44.3557C121.242 44.8764 121.948 45.1693 122.684 45.1701H162.223C162.448 45.1693 162.672 45.141 162.89 45.0859L156.237 38.4299L158.317 36.3497Z" fill="#4D4D4D"/>
<path d="M20.7118 0.791656L5.06641 44.3349H11.1711L15.3704 32.6708H31.8773L36.0766 44.3349H42.1813L26.5359 0.791656H20.7118ZM17.3557 27.1574L20.8633 17.3797C21.823 14.6946 22.7112 12.1077 23.6287 9.41694C24.6109 12.3014 25.4962 14.8588 26.3829 17.3811L29.8906 27.1574H17.3557Z" fill="white"/>
<path d="M62.1761 5.41519C67.5175 5.41519 70.8315 7.73959 72.6036 12.7309L73.1915 14.3872L78.4838 11.9056L77.9717 10.5286C75.4097 3.64101 69.9476 0.00140381 62.1761 0.00140381C50.1899 0.00140381 43.3149 8.21261 43.3149 22.5268C43.3149 36.8901 50.1899 45.1252 62.1761 45.1252C69.9631 45.1252 75.376 41.5038 77.83 34.6527L78.3098 33.3151L73.2294 30.8026L72.6289 32.4869C70.8596 37.4628 67.6424 39.6805 62.2 39.6805C53.5881 39.6805 49.2218 33.9158 49.2218 22.545C49.2218 11.1743 53.5796 5.41519 62.1761 5.41519Z" fill="white"/>
<path d="M100.137 20.1336L95.8928 19.1188C89.4388 17.5565 88.176 15.3697 88.176 12.1203C88.176 7.66941 91.3133 5.41238 97.4993 5.41238C103.29 5.41238 106.207 7.5094 107.253 12.4305L107.597 14.0461L113.271 12.627L112.934 11.1181C111.326 3.74347 106.132 0.00280762 97.5007 0.00280762C88.1382 0.00280762 82.3211 4.66706 82.3211 12.175C82.3211 18.7159 86.1094 22.5619 94.602 24.6463L98.828 25.6849C105.863 27.4016 106.998 29.194 106.998 32.8083C106.998 36.9687 103.182 39.7633 97.4965 39.7633H97.4067C91.0579 39.7633 87.7341 37.4445 86.6369 32.2553L86.2974 30.6482L80.6459 32.0195L80.9742 33.541C82.6579 41.3382 88.0638 45.128 97.5007 45.128C101.894 45.128 105.675 43.9812 108.444 41.8098C109.826 40.7436 110.942 39.3713 111.704 37.801C112.466 36.2306 112.853 34.5048 112.836 32.7592C112.836 29.1631 111.881 26.5566 109.828 24.5606C107.831 22.6278 104.853 21.2649 100.137 20.1336Z" fill="white"/>
<path d="M6.24355 58.5494C6.26985 58.613 6.28595 58.6802 6.29126 58.7488C6.29362 58.7701 6.29105 58.7917 6.28376 58.8119C6.27646 58.8321 6.26462 58.8504 6.24917 58.8653C6.20544 58.897 6.15306 58.9146 6.09904 58.9158C6.00579 58.9248 5.9121 58.9286 5.81843 58.927C5.70198 58.927 5.60938 58.927 5.53782 58.9186C5.48403 58.9157 5.43079 58.9063 5.37927 58.8905C5.34844 58.8808 5.32113 58.8623 5.3007 58.8372C5.28138 58.8112 5.26536 58.7829 5.253 58.753L4.62584 56.9732H1.58824L0.989137 58.7291C0.979054 58.7608 0.96389 58.7907 0.944238 58.8175C0.921712 58.8442 0.893398 58.8653 0.861459 58.8793C0.81329 58.8997 0.762095 58.912 0.709927 58.9158C0.624174 58.9247 0.537967 58.9284 0.451766 58.927C0.362226 58.9283 0.2727 58.9236 0.183783 58.913C0.132909 58.9089 0.0842514 58.8904 0.0434785 58.8596C0.0282722 58.8446 0.0167043 58.8263 0.00965252 58.8061C0.00260072 58.7859 0.000254634 58.7644 0.00279313 58.7431C0.00940795 58.6747 0.0259469 58.6075 0.0518964 58.5438L2.50022 51.7531C2.51204 51.715 2.53217 51.68 2.55915 51.6506C2.58883 51.6213 2.62554 51.6 2.66578 51.5889C2.72473 51.5717 2.78546 51.5613 2.84677 51.558C2.91973 51.558 3.01374 51.5496 3.12738 51.5496C3.24103 51.5496 3.34766 51.5496 3.42763 51.558C3.49221 51.5609 3.55624 51.5713 3.61845 51.5889C3.66119 51.6004 3.7003 51.6226 3.7321 51.6534C3.75969 51.6839 3.78071 51.7197 3.79383 51.7587L6.24355 58.5494ZM3.09792 52.5546L1.83518 56.204H4.3761L3.09792 52.5546Z" fill="white"/>
<path d="M12.6162 56.1927C12.6224 56.5975 12.5564 57.0001 12.4212 57.3816C12.3009 57.7138 12.1093 58.0157 11.86 58.2659C11.611 58.5125 11.3099 58.7 10.9789 58.8147C10.5992 58.9443 10.2 59.0074 9.79889 59.0014C9.42448 59.0058 9.05204 58.9464 8.6975 58.8259C8.37973 58.7172 8.08921 58.541 7.84585 58.3094C7.60068 58.0691 7.41312 57.7764 7.29726 57.4532C7.16287 57.072 7.09777 56.6699 7.10504 56.2657V51.7292C7.10456 51.7014 7.11238 51.674 7.12749 51.6506C7.14765 51.6246 7.17572 51.6059 7.20746 51.5973C7.25295 51.5812 7.29996 51.57 7.34776 51.5636C7.50341 51.5449 7.66074 51.5449 7.81639 51.5636C7.86758 51.5688 7.91797 51.5802 7.96651 51.5973C7.99707 51.606 8.02379 51.6248 8.04228 51.6506C8.05788 51.6738 8.06619 51.7012 8.06613 51.7292V56.1478C8.0604 56.4482 8.10207 56.7476 8.18959 57.0349C8.26164 57.2688 8.38427 57.484 8.54877 57.6651C8.70435 57.8325 8.8964 57.9617 9.10999 58.0427C9.34778 58.1311 9.59996 58.1745 9.85361 58.1704C10.1102 58.1745 10.3655 58.1322 10.607 58.0455C10.8212 57.9683 11.0137 57.8407 11.1683 57.6736C11.3278 57.4956 11.4474 57.2855 11.519 57.0574C11.6049 56.7793 11.6456 56.4893 11.6397 56.1983V51.7292C11.6396 51.7012 11.6479 51.6738 11.6635 51.6506C11.6827 51.6242 11.7105 51.6054 11.7421 51.5973C11.7903 51.5808 11.8402 51.5695 11.8908 51.5636C11.9689 51.553 12.0477 51.5483 12.1265 51.5495C12.203 51.5485 12.2795 51.5532 12.3552 51.5636C12.4031 51.5695 12.4502 51.5808 12.4956 51.5973C12.5268 51.607 12.5545 51.6256 12.5755 51.6506C12.5924 51.6733 12.6013 51.7009 12.6008 51.7292L12.6162 56.1927Z" fill="white"/>
<path d="M18.9594 52.0015C18.9598 52.0635 18.956 52.1254 18.9482 52.1868C18.9435 52.2312 18.9312 52.2744 18.9117 52.3145C18.898 52.3432 18.8767 52.3675 18.85 52.3847C18.8251 52.4 18.7964 52.4077 18.7672 52.4072H16.7117V58.746C16.7125 58.7743 16.7047 58.8022 16.6893 58.826C16.6694 58.8516 16.6419 58.8703 16.6107 58.8793C16.5618 58.8951 16.5116 58.9064 16.4606 58.913C16.383 58.9236 16.3046 58.9283 16.2263 58.927C16.1489 58.928 16.0715 58.9234 15.9948 58.913C15.9428 58.9067 15.8916 58.8954 15.8418 58.8793C15.8105 58.8707 15.7829 58.8519 15.7633 58.826C15.7479 58.8022 15.7401 58.7743 15.7408 58.746V52.4072H13.6854C13.6562 52.4077 13.6275 52.4 13.6026 52.3847C13.5764 52.3677 13.5559 52.3433 13.5436 52.3145C13.5261 52.2737 13.5138 52.2308 13.5072 52.1868C13.4968 52.1256 13.4922 52.0636 13.4931 52.0015C13.4923 51.9381 13.497 51.8747 13.5072 51.812C13.5139 51.7663 13.5262 51.7215 13.5436 51.6787C13.5558 51.6492 13.5763 51.6239 13.6026 51.6057C13.6275 51.5905 13.6562 51.5827 13.6854 51.5833H18.7672C18.7964 51.5827 18.8251 51.5905 18.85 51.6057C18.8768 51.624 18.8981 51.6492 18.9117 51.6787C18.9311 51.7208 18.9435 51.7659 18.9482 51.812C18.9559 51.8749 18.9597 51.9382 18.9594 52.0015Z" fill="white"/>
<path d="M25.6478 55.1541C25.6548 55.6941 25.5849 56.2325 25.4401 56.7528C25.318 57.1955 25.1054 57.6079 24.8157 57.9641C24.536 58.3006 24.1787 58.5641 23.7747 58.7319C23.3103 58.9203 22.8123 59.012 22.3113 59.0014C21.8246 59.0124 21.3404 58.9285 20.8858 58.7544C20.5004 58.6027 20.1589 58.3571 19.8924 58.0399C19.6154 57.6991 19.4158 57.302 19.3074 56.8763C19.1722 56.3544 19.1076 55.8167 19.1152 55.2776C19.1093 54.7467 19.1797 54.2178 19.3242 53.7069C19.447 53.2674 19.6606 52.8585 19.9514 52.5068C20.2345 52.1738 20.5921 51.9122 20.9952 51.7433C21.9184 51.3947 22.9353 51.3857 23.8645 51.718C24.2485 51.8683 24.5907 52.1091 24.8621 52.4198C25.1407 52.7569 25.3427 53.1506 25.4541 53.5736C25.5917 54.0889 25.6569 54.6208 25.6478 55.1541ZM24.6193 55.2215C24.6219 54.8337 24.5852 54.4466 24.5099 54.0663C24.4478 53.737 24.3235 53.4226 24.1437 53.1399C23.9731 52.8784 23.7364 52.6668 23.4576 52.5265C23.1272 52.3694 22.7639 52.2939 22.3983 52.3061C22.0303 52.2935 21.6652 52.3751 21.3376 52.5433C21.0567 52.6954 20.8161 52.9124 20.6361 53.1764C20.4507 53.457 20.3207 53.7705 20.253 54.0999C20.1747 54.4648 20.1362 54.8371 20.138 55.2102C20.1349 55.6081 20.1706 56.0053 20.2446 56.3963C20.3047 56.7279 20.427 57.0451 20.6052 57.3311C20.7729 57.5922 21.008 57.8032 21.2857 57.9417C21.6195 58.0972 21.9853 58.1718 22.3534 58.1592C22.725 58.1718 23.0937 58.0902 23.4253 57.922C23.7091 57.7702 23.9503 57.5497 24.1269 57.2806C24.3097 56.9952 24.4377 56.6781 24.5043 56.3457C24.5821 55.9761 24.6207 55.5992 24.6193 55.2215Z" fill="white"/>
<path d="M34.9682 58.7459C34.9685 58.7744 34.9602 58.8023 34.9443 58.8259C34.9239 58.8523 34.8953 58.871 34.863 58.8793C34.8145 58.8948 34.7647 58.9061 34.7142 58.913C34.56 58.9317 34.4041 58.9317 34.2498 58.913C34.1983 58.9068 34.1476 58.8955 34.0983 58.8793C34.0671 58.8703 34.0396 58.8516 34.0197 58.8259C34.0039 58.8023 33.9955 58.7744 33.9959 58.7459V52.3847H33.9847L31.4101 58.781C31.3988 58.8064 31.3826 58.8293 31.3624 58.8484C31.3354 58.8702 31.3044 58.8864 31.2712 58.8961C31.2255 58.9103 31.1785 58.9197 31.1309 58.9242C31.0761 58.9242 31.0102 58.9326 30.9358 58.9326C30.8678 58.9338 30.7998 58.93 30.7324 58.9214C30.6847 58.9156 30.6377 58.9053 30.5921 58.8905C30.5602 58.8805 30.5306 58.8643 30.5051 58.8428C30.4857 58.8264 30.4712 58.805 30.463 58.781L27.9992 52.3847V58.7515C27.9996 58.78 27.9913 58.8079 27.9754 58.8316C27.9549 58.8579 27.9263 58.8766 27.894 58.8849C27.8446 58.9007 27.7939 58.912 27.7425 58.9186C27.6634 58.9292 27.5837 58.9339 27.504 58.9326C27.4266 58.9338 27.3492 58.9291 27.2725 58.9186C27.2219 58.9123 27.1721 58.901 27.1237 58.8849C27.0932 58.8762 27.0665 58.8574 27.048 58.8316C27.0335 58.8074 27.0262 58.7797 27.0269 58.7515V52.024C27.0208 51.9615 27.0289 51.8984 27.0508 51.8395C27.0727 51.7807 27.1077 51.7276 27.1532 51.6843C27.2322 51.619 27.3314 51.5833 27.4338 51.5832H28.0301C28.1382 51.5817 28.246 51.5931 28.3514 51.6169C28.4372 51.6375 28.5186 51.6736 28.5913 51.7236C28.661 51.7734 28.7197 51.8369 28.7639 51.9103C28.8134 51.9942 28.8539 52.0831 28.8846 52.1756L30.9737 57.47H31.0018L33.1765 52.1924C33.2138 52.0944 33.2608 52.0003 33.3168 51.9117C33.3602 51.8399 33.4152 51.7759 33.4796 51.7222C33.539 51.6762 33.6066 51.6419 33.6788 51.6211C33.7606 51.599 33.8452 51.5886 33.9299 51.5903H34.5557C34.6114 51.59 34.6668 51.5985 34.7199 51.6155C34.7691 51.6316 34.8142 51.6584 34.8517 51.6941C34.8905 51.7344 34.9206 51.7821 34.9401 51.8345C34.9648 51.8985 34.9767 51.9666 34.9752 52.0352L34.9682 58.7459Z" fill="white"/>
<path d="M42.2206 58.5494C42.2469 58.613 42.263 58.6802 42.2683 58.7488C42.2706 58.7701 42.2681 58.7917 42.2608 58.8119C42.2535 58.8321 42.2416 58.8504 42.2262 58.8653C42.1825 58.897 42.1301 58.9146 42.0761 58.9158C41.9828 58.9248 41.8891 58.9286 41.7955 58.927C41.679 58.927 41.5864 58.927 41.5148 58.9186C41.4611 58.9157 41.4078 58.9063 41.3563 58.8905C41.3255 58.8808 41.2982 58.8623 41.2777 58.8372C41.2584 58.8112 41.2424 58.7829 41.23 58.753L40.6029 56.9732H37.5667L36.969 58.7291C36.9589 58.7608 36.9437 58.7907 36.9241 58.8175C36.9015 58.8442 36.8732 58.8653 36.8413 58.8793C36.7931 58.8997 36.7419 58.912 36.6898 58.9158C36.604 58.9247 36.5178 58.9284 36.4316 58.927C36.3421 58.9283 36.2525 58.9236 36.1636 58.913C36.1127 58.9089 36.0641 58.8904 36.0233 58.8596C36.0081 58.8446 35.9965 58.8263 35.9895 58.8061C35.9824 58.7859 35.9801 58.7644 35.9826 58.7431C35.9892 58.6747 36.0058 58.6075 36.0317 58.5438L38.4829 51.7531C38.4947 51.715 38.5148 51.68 38.5418 51.6506C38.5715 51.6213 38.6082 51.6 38.6484 51.5889C38.7074 51.5717 38.7681 51.5613 38.8294 51.558C38.9024 51.558 38.9964 51.5496 39.11 51.5496C39.2237 51.5496 39.3303 51.5496 39.4103 51.558C39.4748 51.5609 39.5389 51.5713 39.6011 51.5889C39.6438 51.6004 39.6829 51.6226 39.7147 51.6534C39.7423 51.6839 39.7633 51.7197 39.7765 51.7587L42.2206 58.5494ZM39.0749 52.5546L37.8122 56.204H40.3531L39.0749 52.5546Z" fill="white"/>
<path d="M46.9545 52.0015C46.9555 52.0635 46.9518 52.1254 46.9432 52.1868C46.9385 52.2312 46.9262 52.2744 46.9067 52.3145C46.8931 52.3432 46.8717 52.3675 46.845 52.3847C46.8206 52.3998 46.7923 52.4076 46.7636 52.4072H44.7068V58.746C44.7075 58.7743 44.6997 58.8022 44.6843 58.826C44.6651 58.8523 44.6373 58.8712 44.6057 58.8793C44.5569 58.8953 44.5066 58.9065 44.4556 58.913C44.378 58.9236 44.2997 58.9283 44.2213 58.927C44.1439 58.928 44.0665 58.9234 43.9898 58.913C43.9383 58.9067 43.8876 58.8954 43.8383 58.8793C43.8065 58.8707 43.7785 58.852 43.7583 58.826C43.7429 58.8022 43.7351 58.7743 43.7359 58.746V52.4072H41.6804C41.6517 52.4077 41.6234 52.3999 41.599 52.3847C41.572 52.3683 41.5509 52.3437 41.5387 52.3145C41.5218 52.2735 41.5095 52.2306 41.5022 52.1868C41.4926 52.1255 41.4879 52.0636 41.4882 52.0015C41.488 51.9381 41.4927 51.8748 41.5022 51.812C41.5096 51.7664 41.5219 51.7217 41.5387 51.6787C41.5509 51.6488 41.5719 51.6233 41.599 51.6057C41.6234 51.5905 41.6517 51.5827 41.6804 51.5832H46.7664C46.7951 51.5829 46.8234 51.5907 46.8478 51.6057C46.8746 51.624 46.8959 51.6492 46.9096 51.6787C46.929 51.7208 46.9413 51.7659 46.946 51.812C46.9535 51.8749 46.9564 51.9382 46.9545 52.0015Z" fill="white"/>
<path d="M48.8205 58.7459C48.8213 58.7743 48.8134 58.8022 48.7981 58.8259C48.7782 58.8516 48.7507 58.8703 48.7195 58.8793C48.6706 58.8951 48.6203 58.9063 48.5694 58.913C48.4147 58.9317 48.2583 58.9317 48.1036 58.913C48.0516 58.9066 48.0004 58.8954 47.9506 58.8793C47.919 58.8712 47.8913 58.8523 47.8721 58.8259C47.8567 58.8022 47.8488 58.7743 47.8496 58.7459V51.7278C47.8491 51.6995 47.858 51.6719 47.8749 51.6492C47.8968 51.6232 47.9262 51.6046 47.959 51.5959C48.0088 51.5796 48.06 51.5683 48.112 51.5622C48.1859 51.5518 48.2604 51.5471 48.3351 51.5481C48.4134 51.5469 48.4917 51.5516 48.5694 51.5622C48.6205 51.5681 48.6708 51.5794 48.7195 51.5959C48.7507 51.6049 48.7782 51.6235 48.7981 51.6492C48.8132 51.6726 48.821 51.7 48.8205 51.7278V58.7459Z" fill="white"/>
<path d="M56.7281 55.1541C56.7354 55.6942 56.665 56.2327 56.519 56.7528C56.3969 57.1951 56.1848 57.6075 55.8961 57.9641C55.6155 58.3004 55.2579 58.5638 54.8536 58.7319C54.3897 58.9203 53.8922 59.012 53.3916 59.0014C52.9021 59.0133 52.415 58.9294 51.9577 58.7544C51.5723 58.6027 51.2308 58.3571 50.9643 58.0399C50.6873 57.6991 50.4877 57.302 50.3793 56.8763C50.2441 56.3544 50.1795 55.8167 50.1871 55.2776C50.1812 54.7467 50.2516 54.2178 50.3961 53.7069C50.5195 53.2676 50.7331 52.8589 51.0233 52.5068C51.307 52.1738 51.665 51.9122 52.0685 51.7433C52.9912 51.3947 54.0077 51.3857 54.9364 51.718C55.3206 51.868 55.6629 52.1088 55.934 52.4198C56.2126 52.7569 56.4146 53.1506 56.526 53.5736C56.6665 54.0885 56.7345 54.6204 56.7281 55.1541ZM55.701 55.2214C55.7039 54.8336 55.6667 54.4465 55.5902 54.0662C55.5281 53.737 55.4038 53.4226 55.224 53.1399C55.0536 52.8788 54.8175 52.6672 54.5393 52.5265C54.2083 52.3696 53.8447 52.2941 53.4786 52.3061C53.1106 52.2936 52.7455 52.3752 52.4179 52.5433C52.1366 52.6948 51.8959 52.912 51.7164 53.1764C51.5301 53.4566 51.3995 53.7702 51.3319 54.0999C51.2537 54.4648 51.2151 54.837 51.2169 55.2102C51.2138 55.6081 51.2495 56.0053 51.3235 56.3963C51.3832 56.7282 51.5061 57.0455 51.6855 57.3311C51.8527 57.5921 52.0874 57.8031 52.3646 57.9417C52.6989 58.0973 53.0652 58.1719 53.4337 58.1592C53.8053 58.1716 54.174 58.09 54.5056 57.922C54.7892 57.77 55.0304 57.5495 55.2072 57.2806C55.3905 56.9954 55.5186 56.6783 55.5846 56.3457C55.661 55.9759 55.6982 55.5991 55.6954 55.2214H55.701Z" fill="white"/>
<path d="M63.6199 58.4919C63.6219 58.558 63.6089 58.6238 63.582 58.6842C63.5593 58.7348 63.5252 58.7795 63.4824 58.8147C63.4411 58.8485 63.3934 58.8733 63.3421 58.8877C63.2925 58.9026 63.2409 58.9102 63.1891 58.9102H62.8678C62.7785 58.9118 62.6893 58.9014 62.6027 58.8793C62.5239 58.8567 62.4504 58.8185 62.3866 58.767C62.3088 58.702 62.2399 58.6269 62.1817 58.5438C62.1011 58.4285 62.0289 58.3074 61.9657 58.1817L59.7362 54.0242C59.6198 53.8094 59.5019 53.5834 59.3841 53.349C59.2662 53.1146 59.1554 52.8844 59.053 52.6626H59.0417C59.0492 52.9331 59.0548 53.2096 59.0586 53.4922C59.0623 53.7748 59.0623 54.0555 59.0586 54.3344V58.746C59.0581 58.7764 59.0477 58.806 59.029 58.83C59.0102 58.8541 58.9842 58.8714 58.9547 58.8793C58.9063 58.895 58.8565 58.9063 58.806 58.913C58.6494 58.9317 58.4912 58.9317 58.3346 58.913C58.2868 58.9064 58.2398 58.8951 58.1943 58.8793C58.1628 58.8702 58.1355 58.8503 58.1171 58.8232C58.1018 58.8003 58.0935 58.7735 58.0933 58.746V52.0015C58.0872 51.9414 58.0956 51.8807 58.1178 51.8246C58.14 51.7684 58.1754 51.7184 58.2209 51.6787C58.3014 51.6169 58.4001 51.5833 58.5016 51.5832H58.9786C59.0729 51.5812 59.1671 51.5906 59.2592 51.6113C59.3324 51.6285 59.4016 51.66 59.4626 51.704C59.5299 51.7551 59.5891 51.8161 59.638 51.885C59.7036 51.9777 59.7627 52.0748 59.8148 52.1756L61.5293 55.3857C61.635 55.5803 61.7365 55.7712 61.8338 55.9584C61.932 56.145 62.0274 56.3289 62.1144 56.51L62.3838 57.0434C62.4736 57.2188 62.562 57.3943 62.649 57.5711C62.642 57.2736 62.6363 56.9648 62.6349 56.6419C62.6335 56.3191 62.6349 56.0103 62.6349 55.7127V51.7461C62.6353 51.7199 62.6436 51.6944 62.6588 51.6731C62.6796 51.6465 62.7072 51.6261 62.7388 51.6141C62.7862 51.5946 62.8364 51.5823 62.8875 51.5776C62.9676 51.5688 63.0482 51.565 63.1288 51.5664C63.2047 51.5653 63.2806 51.5691 63.3561 51.5776C63.4073 51.5819 63.4575 51.5942 63.5048 51.6141C63.5351 51.6269 63.5617 51.6472 63.582 51.6731C63.5972 51.6944 63.6055 51.7199 63.6058 51.7461L63.6199 58.4919Z" fill="white"/>
<path d="M67.4923 56.9675C67.4912 56.7675 67.5196 56.5684 67.5765 56.3766C67.6369 56.1834 67.7268 56.0006 67.843 55.8348C67.9762 55.6442 68.1348 55.4728 68.3145 55.3253C68.5351 55.1426 68.7697 54.9774 69.016 54.8312C68.8645 54.6282 68.7354 54.4438 68.6288 54.2782C68.531 54.1294 68.4424 53.9747 68.3636 53.815C68.2986 53.6843 68.2483 53.5469 68.2134 53.4051C68.1839 53.2762 68.1688 53.1444 68.1685 53.0121C68.1675 52.7836 68.2079 52.5567 68.2878 52.3426C68.3685 52.1281 68.4988 51.9357 68.668 51.7811C68.863 51.605 69.093 51.4721 69.3429 51.3909C69.9485 51.2114 70.5912 51.1988 71.2033 51.3544C71.4235 51.414 71.6292 51.5176 71.8081 51.659C71.9652 51.7868 72.0894 51.9504 72.17 52.1363C72.2525 52.334 72.2935 52.5466 72.2907 52.7609C72.2932 52.9692 72.2571 53.1763 72.1841 53.3715C72.1034 53.5701 71.9863 53.752 71.8389 53.9076C71.6565 54.1016 71.4532 54.2748 71.2328 54.4242C70.9447 54.6207 70.6458 54.8011 70.3377 54.9646C70.4653 55.119 70.6042 55.279 70.7586 55.4474C70.9129 55.6158 71.0673 55.7829 71.2314 55.9527C71.3956 56.1226 71.5625 56.2896 71.7337 56.4524C71.9049 56.6152 72.0732 56.7738 72.2388 56.924C72.3183 56.8157 72.3865 56.6996 72.4422 56.5773C72.5035 56.4432 72.5565 56.3053 72.6008 56.1647C72.6457 56.0196 72.6795 55.8713 72.7018 55.7211C72.7244 55.5696 72.7356 55.4167 72.7355 55.2635V55.0516C72.7344 55.0196 72.7411 54.9878 72.7551 54.959C72.7705 54.9319 72.7934 54.91 72.8211 54.8958C72.8626 54.8761 72.9072 54.8637 72.953 54.8593C73.0289 54.8511 73.1053 54.8474 73.1816 54.8481C73.2644 54.8481 73.3346 54.8481 73.3935 54.8481C73.4411 54.8509 73.4882 54.8593 73.5338 54.8733C73.568 54.8833 73.597 54.9059 73.6152 54.9365C73.6338 54.9719 73.6426 55.0116 73.6404 55.0516V55.192C73.6404 55.4004 73.6226 55.6084 73.5871 55.8138C73.5539 56.0151 73.507 56.2139 73.4468 56.4089C73.3859 56.6023 73.3085 56.7902 73.2153 56.9703C73.1261 57.142 73.0234 57.3063 72.9081 57.4616C73.0778 57.602 73.2251 57.7101 73.3514 57.7999C73.4777 57.8897 73.5843 57.9641 73.6727 58.0203C73.7421 58.0672 73.8158 58.1071 73.893 58.1396C73.9375 58.1588 73.9849 58.1702 74.0333 58.1733C74.0688 58.1755 74.1044 58.1755 74.1399 58.1733C74.1687 58.1677 74.1984 58.1738 74.2227 58.1901C74.2479 58.2141 74.2646 58.2456 74.2704 58.2799C74.2837 58.3488 74.2894 58.4189 74.2873 58.4891C74.2873 58.5831 74.2873 58.6589 74.2873 58.715C74.2858 58.7583 74.2792 58.8011 74.2676 58.8428C74.2586 58.8702 74.2421 58.8945 74.2199 58.913C74.1826 58.9389 74.1399 58.9562 74.095 58.9635C74.0173 58.981 73.9376 58.9891 73.8579 58.9874C73.7736 58.9858 73.69 58.9721 73.6096 58.9467C73.4995 58.9116 73.3936 58.8645 73.2939 58.8063C73.1488 58.7246 73.0083 58.6351 72.873 58.5382C72.713 58.425 72.526 58.2818 72.3118 58.1087C72.1528 58.2373 71.986 58.3559 71.8123 58.4638C71.6342 58.5745 71.4464 58.6685 71.2511 58.7445C71.0495 58.8227 70.8415 58.8833 70.6295 58.9256C70.3984 58.9707 70.1634 58.9928 69.928 58.9916C69.7015 58.9926 69.4755 58.9715 69.2531 58.9284C69.0502 58.891 68.8521 58.8312 68.6624 58.7501C68.4878 58.6766 68.3243 58.5788 68.177 58.4596C67.8903 58.2289 67.682 57.9151 67.5807 57.5613C67.5229 57.3686 67.4931 57.1687 67.4923 56.9675ZM68.5025 56.8707C68.5004 57.0547 68.5343 57.2373 68.6021 57.4083C68.6665 57.5685 68.7657 57.7123 68.8925 57.8294C69.0307 57.956 69.1943 58.0517 69.3724 58.1101C69.5876 58.1794 69.8128 58.2126 70.0388 58.2083C70.1907 58.2089 70.3422 58.1929 70.4906 58.1606C70.6344 58.1294 70.7753 58.0857 70.9115 58.0301C71.0444 57.9757 71.1721 57.9094 71.2931 57.8322C71.4097 57.7583 71.5208 57.6762 71.6257 57.5865C71.4306 57.4181 71.2356 57.2412 71.042 57.0588C70.8484 56.8763 70.6604 56.6924 70.4808 56.5086C70.3012 56.3247 70.1258 56.1394 69.9588 55.9569C69.7919 55.7745 69.6375 55.5962 69.4986 55.4236C69.3312 55.5286 69.1734 55.6484 69.0272 55.7815C68.9115 55.8877 68.8088 56.0074 68.7214 56.138C68.6483 56.2482 68.5925 56.3689 68.5558 56.4959C68.52 56.6195 68.502 56.7476 68.5025 56.8763V56.8707ZM69.1577 52.9405C69.158 53.0454 69.1726 53.1498 69.2012 53.2507C69.2323 53.3654 69.2756 53.4765 69.3303 53.582C69.3892 53.6957 69.4608 53.8192 69.5449 53.9511C69.6291 54.0831 69.7301 54.2319 69.8466 54.3919C70.1272 54.2375 70.3531 54.0957 70.5383 53.9708C70.7008 53.8621 70.8513 53.7365 70.9873 53.596C71.0901 53.4906 71.1736 53.3681 71.2342 53.2339C71.285 53.1121 71.3108 52.9813 71.31 52.8493C71.3104 52.7422 71.2904 52.6359 71.2511 52.5363C71.2089 52.4346 71.1441 52.3439 71.0616 52.271C70.9655 52.1884 70.8539 52.1259 70.7333 52.0871C70.4121 51.994 70.0707 51.9969 69.7512 52.0956C69.6254 52.1396 69.5099 52.2089 69.4117 52.2991C69.3249 52.3813 69.2585 52.4827 69.218 52.5952C69.1771 52.7077 69.1567 52.8265 69.1577 52.9462V52.9405Z" fill="white"/>
<path d="M82.9132 57.8589C82.9132 57.9192 82.9132 57.9725 82.9132 58.0175C82.9096 58.0577 82.903 58.0975 82.8935 58.1368C82.8844 58.1679 82.8722 58.198 82.8571 58.2266C82.8345 58.2621 82.8076 58.2946 82.7771 58.3235C82.703 58.3871 82.6237 58.4443 82.54 58.4947C82.3975 58.5835 82.2472 58.6591 82.091 58.7207C81.6542 58.8973 81.1871 58.9864 80.716 58.9832C80.2762 58.9898 79.8393 58.9092 79.4308 58.7459C79.0527 58.5927 78.7162 58.3523 78.4487 58.0441C78.1653 57.7095 77.9537 57.3201 77.8271 56.9002C77.5316 55.8569 77.5374 54.7512 77.844 53.7111C77.9826 53.2701 78.2062 52.8605 78.502 52.5054C78.7785 52.1803 79.1254 51.9225 79.5164 51.7517C79.9291 51.5736 80.3747 51.4847 80.824 51.4906C81.0304 51.49 81.2363 51.5102 81.4386 51.551C81.6291 51.5864 81.8167 51.6362 81.9998 51.6997C82.1569 51.7545 82.3082 51.8246 82.4516 51.9089C82.552 51.9635 82.6461 52.0289 82.7322 52.104C82.7698 52.1384 82.8028 52.1776 82.8304 52.2205C82.8471 52.2495 82.8599 52.2807 82.8683 52.3131C82.8783 52.3552 82.8858 52.3979 82.8907 52.4409C82.8968 52.4987 82.8997 52.5568 82.8992 52.6149C82.8996 52.6792 82.8959 52.7434 82.8879 52.8072C82.8822 52.8553 82.8705 52.9025 82.8529 52.9476C82.842 52.9779 82.8237 53.0049 82.7995 53.0262C82.7776 53.0434 82.7503 53.0523 82.7224 53.0514C82.6397 53.0377 82.563 52.9996 82.5021 52.9419C82.3813 52.851 82.2548 52.768 82.1233 52.6935C81.9505 52.5943 81.7681 52.5129 81.5789 52.4507C81.3305 52.3713 81.0707 52.3338 80.81 52.3398C80.5025 52.3357 80.1981 52.4024 79.9205 52.5349C79.65 52.6687 79.4157 52.8656 79.2372 53.109C79.0348 53.3871 78.8854 53.7002 78.7966 54.0326C78.5927 54.8448 78.5927 55.6949 78.7966 56.5072C78.8811 56.8297 79.0279 57.1325 79.2288 57.3985C79.4098 57.6339 79.6465 57.8206 79.9177 57.9417C80.2098 58.0679 80.5255 58.1306 80.8437 58.1255C81.1022 58.1302 81.3599 58.0937 81.607 58.0175C81.8016 57.9566 81.9897 57.8762 82.1682 57.7774C82.298 57.7039 82.424 57.6238 82.5456 57.5374C82.6111 57.4799 82.6921 57.4428 82.7785 57.4307C82.8021 57.43 82.8254 57.4358 82.8458 57.4476C82.8686 57.4627 82.8851 57.4857 82.8921 57.5122C82.9062 57.5578 82.9147 57.6049 82.9174 57.6525C82.9104 57.7016 82.9132 57.7732 82.9132 57.8589Z" fill="white"/>
<path d="M90.0589 55.1541C90.0655 55.6942 89.9951 56.2325 89.8499 56.7528C89.7273 57.1952 89.5147 57.6076 89.2255 57.9641C88.9455 58.3003 88.5883 58.5637 88.1845 58.7319C87.7201 58.9203 87.2221 59.012 86.7211 59.0014C86.2344 59.0124 85.7502 58.9285 85.2956 58.7544C84.9099 58.6024 84.5681 58.3569 84.3008 58.0399C84.0248 57.6986 83.8257 57.3017 83.7172 56.8763C83.5825 56.3543 83.5183 55.8166 83.5263 55.2776C83.5205 54.7467 83.5909 54.2178 83.7354 53.7069C83.8582 53.2674 84.0718 52.8585 84.3626 52.5068C84.6454 52.1735 85.0031 51.9118 85.4064 51.7433C86.3296 51.3947 87.3465 51.3857 88.2757 51.718C88.6593 51.8683 89.0011 52.1091 89.2718 52.4198C89.5509 52.7568 89.7535 53.1505 89.8653 53.5736C90.0029 54.0889 90.0681 54.6208 90.0589 55.1541ZM89.0305 55.2215C89.0331 54.8337 88.9964 54.4466 88.9211 54.0663C88.8582 53.7372 88.734 53.4229 88.5549 53.1399C88.3864 52.8788 88.1522 52.6668 87.8758 52.5251C87.5449 52.3679 87.1812 52.2923 86.8151 52.3047C86.4475 52.2921 86.0829 52.3737 85.7558 52.5419C85.4748 52.694 85.2343 52.911 85.0543 53.175C84.8689 53.4556 84.7389 53.7691 84.6712 54.0986C84.5924 54.4633 84.5534 54.8356 84.5548 55.2088C84.5521 55.6067 84.5883 56.004 84.6628 56.3949C84.7221 56.7267 84.8445 57.044 85.0234 57.3297C85.1911 57.5908 85.4262 57.8018 85.7039 57.9403C86.0377 58.0958 86.4035 58.1704 86.7716 58.1578C87.1432 58.1704 87.5119 58.0888 87.8435 57.9206C88.127 57.7684 88.3681 57.548 88.545 57.2792C88.7273 56.9934 88.8552 56.6765 88.9225 56.3444C88.9972 55.9748 89.0334 55.5985 89.0305 55.2215Z" fill="white"/>
<path d="M96.9563 58.4919C96.9583 58.558 96.9454 58.6238 96.9184 58.6842C96.8953 58.7345 96.8612 58.7791 96.8188 58.8147C96.7775 58.8483 96.7297 58.8731 96.6785 58.8877C96.6294 58.9027 96.5784 58.9103 96.527 58.9102H96.2057C96.1163 58.9118 96.0271 58.9014 95.9405 58.8793C95.8616 58.857 95.7881 58.8188 95.7245 58.767C95.6463 58.7023 95.5774 58.6272 95.5196 58.5438C95.4385 58.4285 95.3658 58.3075 95.3021 58.1817L93.0727 54.0241C92.9562 53.8094 92.8398 53.5834 92.7205 53.349C92.6013 53.1146 92.4918 52.8844 92.3908 52.6626H92.3796C92.3861 52.9331 92.3917 53.2096 92.3964 53.4922C92.3964 53.7729 92.3964 54.0536 92.3964 54.3343V58.7459C92.3962 58.7735 92.3879 58.8003 92.3726 58.8231C92.3522 58.8501 92.3237 58.8698 92.2912 58.8793C92.2428 58.8951 92.193 58.9064 92.1425 58.913C92.0644 58.9236 91.9856 58.9283 91.9068 58.927C91.8284 58.9283 91.7501 58.9237 91.6725 58.913C91.6247 58.9064 91.5777 58.8951 91.5321 58.8793C91.5006 58.8695 91.4731 58.8498 91.4536 58.8231C91.4382 58.8003 91.4299 58.7735 91.4297 58.7459V52.0015C91.4238 51.9413 91.4324 51.8805 91.4549 51.8244C91.4774 51.7682 91.513 51.7182 91.5588 51.6787C91.6393 51.6168 91.7379 51.5832 91.8394 51.5832H92.3179C92.4122 51.581 92.5064 51.5905 92.5985 51.6113C92.6721 51.6285 92.7417 51.66 92.8033 51.704C92.8705 51.7548 92.9292 51.8159 92.9773 51.885C93.0434 51.9776 93.1029 52.0747 93.1555 52.1756L94.8686 55.3857C94.9743 55.5803 95.0763 55.7712 95.1745 55.9583C95.2727 56.145 95.3667 56.3289 95.4551 56.51C95.5435 56.691 95.6361 56.8679 95.7259 57.0433L95.991 57.5711C95.9826 57.2735 95.9784 56.9647 95.9756 56.6419C95.9728 56.3191 95.9756 56.0103 95.9756 55.7127V51.7461C95.976 51.7199 95.9843 51.6944 95.9995 51.6731C96.0211 51.6468 96.0491 51.6265 96.0808 51.6141C96.1283 51.5945 96.1784 51.5822 96.2296 51.5776C96.3097 51.5687 96.3903 51.565 96.4709 51.5664C96.5463 51.5653 96.6218 51.5691 96.6968 51.5776C96.7484 51.5817 96.7991 51.5941 96.8469 51.6141C96.877 51.6273 96.9035 51.6475 96.9241 51.6731C96.9392 51.6944 96.9476 51.7199 96.9479 51.7461L96.9563 58.4919Z" fill="white"/>
<path d="M103.316 52.0015C103.317 52.0635 103.314 52.1254 103.305 52.1868C103.3 52.2312 103.288 52.2744 103.269 52.3145C103.255 52.3432 103.234 52.3675 103.207 52.3847C103.182 52.3999 103.153 52.4077 103.124 52.4072H101.064V58.7459C101.065 58.7743 101.057 58.8021 101.042 58.8259C101.022 58.8519 100.995 58.8707 100.963 58.8793C100.915 58.8951 100.864 58.9063 100.813 58.913C100.736 58.9236 100.657 58.9282 100.579 58.927C100.502 58.928 100.424 58.9233 100.347 58.913C100.296 58.9066 100.244 58.8954 100.195 58.8793C100.163 58.8703 100.136 58.8516 100.116 58.8259C100.101 58.8021 100.093 58.7743 100.094 58.7459V52.4072H98.0381C98.0093 52.4082 97.9809 52.4004 97.9567 52.3847C97.9297 52.3682 97.9086 52.3437 97.8964 52.3145C97.8788 52.2737 97.8666 52.2307 97.8599 52.1868C97.8496 52.1256 97.8449 52.0636 97.8459 52.0015C97.845 51.9381 97.8497 51.8746 97.8599 51.812C97.8667 51.7663 97.8789 51.7215 97.8964 51.6787C97.9086 51.6488 97.9296 51.6233 97.9567 51.6057C97.9809 51.59 98.0093 51.5822 98.0381 51.5832H103.12C103.149 51.5827 103.178 51.5905 103.203 51.6057C103.229 51.624 103.251 51.6492 103.264 51.6787C103.284 51.7208 103.296 51.7659 103.301 51.812C103.311 51.8747 103.316 51.938 103.316 52.0015Z" fill="white"/>
<path d="M109.084 58.746C109.085 58.7736 109.079 58.801 109.067 58.826C109.051 58.8528 109.025 58.8728 108.994 58.8821C108.943 58.9004 108.89 58.9118 108.836 58.9158C108.746 58.9248 108.656 58.9285 108.565 58.927C108.485 58.9284 108.405 58.9247 108.325 58.9158C108.274 58.9113 108.223 58.899 108.175 58.8793C108.14 58.8647 108.11 58.8403 108.088 58.8091C108.065 58.7738 108.047 58.7356 108.033 58.6954L107.361 56.9732C107.283 56.7767 107.201 56.597 107.116 56.4328C107.037 56.2781 106.935 56.1361 106.814 56.0117C106.697 55.8913 106.557 55.7958 106.402 55.731C106.22 55.6609 106.027 55.6276 105.832 55.6327H105.182V58.7446C105.183 58.7733 105.174 58.8014 105.157 58.8246C105.136 58.8499 105.109 58.8685 105.077 58.8779C105.032 58.8937 104.985 58.905 104.937 58.9116C104.781 58.9303 104.624 58.9303 104.468 58.9116C104.417 58.9051 104.367 58.8939 104.318 58.8779C104.287 58.8698 104.259 58.8509 104.24 58.8246C104.224 58.8009 104.215 58.773 104.216 58.7446V51.9777C104.21 51.9209 104.217 51.8635 104.237 51.8101C104.257 51.7566 104.29 51.7088 104.332 51.6703C104.402 51.6149 104.488 51.5844 104.578 51.5833H106.131C106.315 51.5833 106.469 51.5833 106.591 51.5973C106.713 51.6113 106.824 51.6169 106.922 51.6282C107.181 51.67 107.433 51.748 107.67 51.8598C107.876 51.9569 108.061 52.0932 108.214 52.2612C108.362 52.4239 108.474 52.615 108.546 52.8227C108.621 53.0455 108.658 53.2795 108.655 53.5146C108.659 53.738 108.625 53.9604 108.557 54.1729C108.496 54.3601 108.401 54.5344 108.276 54.6867C108.149 54.8387 107.998 54.9695 107.83 55.0741C107.648 55.1899 107.453 55.2841 107.249 55.3548C107.367 55.4064 107.477 55.474 107.576 55.5555C107.681 55.6414 107.775 55.7394 107.857 55.8475C107.947 55.9703 108.027 56.1003 108.097 56.2363C108.171 56.3766 108.247 56.5493 108.322 56.7346L108.978 58.3445C109.03 58.4849 109.063 58.5747 109.079 58.6252C109.085 58.6651 109.087 58.7056 109.084 58.746ZM107.622 53.6115C107.631 53.356 107.564 53.1037 107.43 52.8858C107.275 52.671 107.045 52.521 106.786 52.4647C106.681 52.4359 106.574 52.4166 106.466 52.4072C106.348 52.396 106.186 52.3903 106 52.3903H105.182V54.8537H106.131C106.356 54.8582 106.58 54.8269 106.795 54.7611C106.966 54.7074 107.124 54.619 107.26 54.5014C107.382 54.3945 107.476 54.2597 107.534 54.1084C107.595 53.9499 107.625 53.7812 107.622 53.6115Z" fill="white"/>
<path d="M116.338 55.1541C116.345 55.6942 116.274 56.2325 116.129 56.7528C116.006 57.195 115.793 57.6072 115.505 57.9641C115.224 58.3006 114.867 58.5641 114.462 58.7319C113.998 58.9203 113.501 59.012 113 59.0014C112.513 59.0124 112.028 58.9285 111.573 58.7544C111.188 58.6023 110.847 58.3568 110.58 58.0399C110.304 57.6984 110.104 57.3016 109.995 56.8763C109.86 56.3543 109.796 55.8166 109.804 55.2776C109.798 54.7468 109.868 54.2178 110.012 53.7069C110.136 53.2678 110.349 52.8592 110.639 52.5068C110.923 52.1738 111.281 51.9122 111.684 51.7432C112.148 51.556 112.646 51.4648 113.146 51.4752C113.625 51.4656 114.101 51.548 114.549 51.718C114.933 51.8683 115.275 52.1091 115.545 52.4198C115.824 52.7571 116.026 53.1507 116.139 53.5736C116.278 54.0887 116.345 54.6206 116.338 55.1541ZM115.31 55.2214C115.312 54.8337 115.276 54.4466 115.2 54.0662C115.137 53.7371 115.012 53.4228 114.833 53.1399C114.662 52.8788 114.426 52.6672 114.148 52.5265C113.817 52.3696 113.453 52.2941 113.087 52.3061C112.719 52.2936 112.354 52.3752 112.026 52.5433C111.745 52.6952 111.505 52.9123 111.325 53.1764C111.139 53.4569 111.009 53.7704 110.941 54.0999C110.863 54.4649 110.824 54.8371 110.825 55.2102C110.823 55.6081 110.859 56.0054 110.933 56.3963C110.992 56.7283 111.115 57.0457 111.294 57.3311C111.461 57.5921 111.696 57.8031 111.973 57.9417C112.307 58.0972 112.674 58.1718 113.042 58.1592C113.414 58.1716 113.783 58.09 114.114 57.922C114.398 57.77 114.639 57.5495 114.816 57.2806C114.999 56.9952 115.127 56.6782 115.195 56.3457C115.272 55.976 115.31 55.5992 115.31 55.2214Z" fill="white"/>
<path d="M121.501 58.4694C121.502 58.5328 121.498 58.5961 121.49 58.6589C121.484 58.7038 121.471 58.7477 121.454 58.7894C121.439 58.8206 121.418 58.8476 121.39 58.868C121.365 58.8854 121.334 58.8942 121.303 58.8933H118.076C117.987 58.8922 117.9 58.8616 117.829 58.8063C117.787 58.7675 117.755 58.7193 117.735 58.6656C117.715 58.612 117.708 58.5544 117.714 58.4975V51.7292C117.714 51.7014 117.722 51.674 117.737 51.6506C117.757 51.6249 117.784 51.6063 117.815 51.5973C117.865 51.5805 117.916 51.5692 117.968 51.5636C118.045 51.5532 118.122 51.5485 118.2 51.5495C118.278 51.5483 118.357 51.553 118.434 51.5636C118.485 51.5695 118.536 51.5808 118.584 51.5973C118.616 51.6059 118.643 51.6246 118.663 51.6506C118.678 51.674 118.686 51.7014 118.685 51.7292V58.0455H121.306C121.337 58.0446 121.368 58.0534 121.393 58.0708C121.42 58.0906 121.441 58.116 121.456 58.1452C121.475 58.1851 121.487 58.2277 121.493 58.2715C121.5 58.3372 121.503 58.4033 121.501 58.4694Z" fill="white"/>
<path d="M128.79 56.8426C128.796 57.158 128.731 57.4707 128.601 57.7578C128.478 58.0208 128.298 58.2533 128.075 58.4385C127.842 58.6302 127.573 58.7734 127.285 58.8596C126.966 58.9558 126.635 59.0031 126.303 59C126.074 59.0016 125.846 58.9804 125.622 58.9368C125.431 58.9013 125.244 58.8506 125.061 58.7852C124.918 58.7344 124.78 58.6719 124.648 58.5986C124.565 58.5537 124.487 58.4985 124.417 58.4343C124.372 58.3853 124.339 58.3261 124.321 58.2617C124.298 58.17 124.287 58.0755 124.291 57.981C124.289 57.912 124.293 57.843 124.302 57.7746C124.306 57.7292 124.318 57.6848 124.335 57.6427C124.346 57.6136 124.366 57.5886 124.392 57.5711C124.416 57.5579 124.443 57.5511 124.47 57.5514C124.552 57.5629 124.629 57.5963 124.693 57.6483C124.813 57.7246 124.936 57.794 125.064 57.856C125.239 57.9419 125.421 58.0128 125.608 58.068C125.848 58.1379 126.096 58.1715 126.346 58.1676C126.542 58.1699 126.737 58.1414 126.924 58.0834C127.088 58.0319 127.242 57.95 127.376 57.842C127.501 57.7397 127.601 57.6094 127.668 57.4616C127.737 57.2994 127.772 57.1243 127.769 56.9479C127.775 56.7606 127.726 56.5756 127.628 56.4159C127.53 56.2647 127.404 56.1334 127.257 56.0285C127.09 55.9109 126.913 55.809 126.728 55.7239L126.122 55.4432C125.914 55.3471 125.713 55.2403 125.517 55.1232C125.325 55.0091 125.149 54.8709 124.992 54.7119C124.835 54.5482 124.708 54.3582 124.616 54.1505C124.516 53.9082 124.468 53.6475 124.476 53.3855C124.471 53.1042 124.528 52.8254 124.643 52.5686C124.749 52.3353 124.908 52.1294 125.106 51.9664C125.314 51.7994 125.552 51.674 125.807 51.5973C126.094 51.51 126.392 51.4669 126.691 51.4695C126.855 51.4696 127.018 51.4837 127.179 51.5116C127.337 51.5388 127.492 51.5768 127.644 51.6253C127.777 51.667 127.906 51.7201 128.03 51.7839C128.11 51.8203 128.185 51.8676 128.253 51.9243C128.28 51.95 128.304 51.9787 128.324 52.0099C128.337 52.0349 128.346 52.0613 128.352 52.0885C128.36 52.1265 128.366 52.165 128.369 52.2036C128.369 52.25 128.369 52.3075 128.369 52.3791C128.37 52.4396 128.367 52.5 128.361 52.5602C128.357 52.6077 128.349 52.6547 128.336 52.7005C128.327 52.731 128.31 52.7583 128.286 52.7791C128.267 52.7958 128.242 52.8048 128.216 52.8044C128.146 52.7933 128.079 52.7665 128.021 52.7258C127.933 52.6724 127.825 52.6135 127.697 52.5475C127.551 52.4744 127.399 52.4139 127.243 52.3665C127.051 52.3096 126.852 52.2822 126.652 52.285C126.472 52.281 126.292 52.3085 126.122 52.3665C125.984 52.4135 125.857 52.4874 125.748 52.584C125.651 52.6734 125.576 52.7838 125.528 52.9068C125.479 53.0325 125.454 53.1663 125.455 53.3013C125.449 53.4867 125.498 53.6697 125.595 53.8276C125.695 53.9796 125.822 54.1115 125.97 54.2164C126.137 54.3369 126.316 54.4412 126.503 54.528L127.113 54.8088C127.321 54.9042 127.525 55.0109 127.724 55.1246C127.919 55.2363 128.098 55.3732 128.257 55.5316C128.429 55.7021 128.565 55.9062 128.655 56.1313C128.745 56.3563 128.787 56.5975 128.78 56.8398L128.79 56.8426Z" fill="white"/>
<path d="M132.23 56.0524V58.746C132.231 58.7743 132.223 58.8022 132.208 58.826C132.189 58.8523 132.161 58.8712 132.129 58.8793C132.08 58.8952 132.029 58.9065 131.978 58.913C131.824 58.9317 131.669 58.9317 131.515 58.913C131.463 58.9062 131.413 58.8949 131.363 58.8793C131.331 58.8711 131.302 58.8523 131.282 58.826C131.267 58.8022 131.259 58.7743 131.259 58.746V56.0524L129.193 51.9271C129.159 51.8627 129.133 51.7943 129.116 51.7236C129.11 51.704 129.11 51.6832 129.115 51.6634C129.12 51.6437 129.131 51.6257 129.145 51.6113C129.189 51.5789 129.242 51.5612 129.297 51.5608C129.395 51.5518 129.494 51.5481 129.593 51.5496C129.686 51.5479 129.78 51.5517 129.873 51.5608C129.929 51.5651 129.985 51.5754 130.039 51.5917C130.075 51.6012 130.107 51.6206 130.133 51.6478C130.156 51.6761 130.176 51.7072 130.192 51.7405L131.203 53.8459C131.297 54.0452 131.39 54.2544 131.484 54.4733L131.765 55.133H131.776C131.861 54.9197 131.951 54.7119 132.042 54.493C132.134 54.274 132.228 54.0719 132.323 53.8627L133.339 51.7489C133.349 51.7146 133.365 51.6824 133.386 51.6534C133.409 51.6258 133.438 51.6053 133.472 51.5945C133.52 51.578 133.57 51.5676 133.621 51.5636C133.701 51.5549 133.782 51.5511 133.864 51.5524C133.97 51.5507 134.077 51.5554 134.183 51.5664C134.241 51.5683 134.297 51.5868 134.345 51.6197C134.359 51.634 134.37 51.652 134.375 51.6717C134.381 51.6914 134.381 51.7123 134.376 51.732C134.359 51.801 134.333 51.8676 134.298 51.93L132.23 56.0524Z" fill="white"/>
<path d="M139.206 56.8426C139.212 57.1578 139.148 57.4703 139.018 57.7578C138.895 58.0208 138.716 58.2533 138.492 58.4385C138.26 58.6302 137.991 58.7734 137.702 58.8596C137.384 58.9557 137.053 59.0031 136.72 59C136.492 59.0015 136.264 58.9803 136.04 58.9368C135.849 58.9014 135.661 58.8507 135.478 58.7852C135.336 58.7344 135.198 58.6719 135.066 58.5985C134.982 58.5537 134.904 58.4985 134.834 58.4343C134.789 58.3857 134.756 58.3263 134.739 58.2617C134.715 58.1701 134.704 58.0756 134.707 57.9809C134.706 57.912 134.71 57.843 134.719 57.7746C134.724 57.7292 134.735 57.6847 134.753 57.6427C134.763 57.6132 134.783 57.5881 134.809 57.5711C134.833 57.5578 134.86 57.5511 134.888 57.5514C134.97 57.5629 135.047 57.5963 135.111 57.6483C135.23 57.7246 135.354 57.794 135.481 57.856C135.656 57.9419 135.839 58.0128 136.026 58.068C136.265 58.1379 136.514 58.1715 136.764 58.1676C136.96 58.1697 137.155 58.1413 137.342 58.0834C137.506 58.0319 137.659 57.95 137.794 57.842C137.919 57.74 138.019 57.6096 138.084 57.4616C138.155 57.2998 138.19 57.1245 138.186 56.9479C138.192 56.7607 138.143 56.5759 138.046 56.4159C137.95 56.2676 137.827 56.1382 137.684 56.0341C137.517 55.9165 137.34 55.8146 137.155 55.7295L136.549 55.4488C136.342 55.353 136.14 55.2462 135.944 55.1288C135.752 55.0151 135.576 54.8769 135.42 54.7175C135.262 54.5542 135.135 54.3641 135.044 54.1561C134.943 53.9139 134.895 53.6531 134.903 53.3911C134.898 53.1098 134.955 52.831 135.07 52.5742C135.177 52.3409 135.335 52.135 135.533 51.972C135.741 51.805 135.979 51.6797 136.235 51.6029C136.521 51.5156 136.819 51.4725 137.119 51.4751C137.282 51.4753 137.446 51.4894 137.607 51.5173C137.764 51.5442 137.918 51.5822 138.07 51.6309C138.203 51.6724 138.333 51.7254 138.457 51.7896C138.537 51.8263 138.612 51.8735 138.68 51.9299C138.707 51.9555 138.731 51.9843 138.75 52.0155C138.764 52.0402 138.773 52.0667 138.778 52.0941C138.788 52.132 138.794 52.1705 138.797 52.2092C138.797 52.2556 138.797 52.3131 138.797 52.3847C138.797 52.4452 138.794 52.5056 138.788 52.5658C138.784 52.6133 138.775 52.6604 138.762 52.7061C138.754 52.7364 138.737 52.7638 138.714 52.7847C138.694 52.8012 138.669 52.8102 138.644 52.81C138.574 52.7992 138.507 52.7723 138.449 52.7314C138.36 52.678 138.252 52.6191 138.125 52.5531C137.978 52.4803 137.826 52.4197 137.67 52.3721C137.478 52.3152 137.279 52.2878 137.079 52.2907C136.899 52.2866 136.72 52.3142 136.549 52.3721C136.411 52.4191 136.285 52.4931 136.176 52.5896C136.079 52.679 136.003 52.7895 135.956 52.9125C135.906 53.0381 135.882 53.172 135.883 53.3069C135.877 53.4922 135.926 53.6751 136.023 53.8332C136.123 53.9853 136.25 54.1172 136.399 54.222C136.566 54.3425 136.745 54.4468 136.932 54.5336C137.131 54.6272 137.335 54.7208 137.542 54.8144C137.75 54.9098 137.952 55.0165 138.153 55.1302C138.347 55.2419 138.527 55.3788 138.686 55.5372C138.844 55.6979 138.973 55.8857 139.065 56.0917C139.164 56.3292 139.213 56.5851 139.206 56.8426Z" fill="white"/>
<path d="M144.935 52.0015C144.935 52.0635 144.932 52.1254 144.924 52.1868C144.919 52.2312 144.907 52.2744 144.887 52.3145C144.874 52.3432 144.852 52.3675 144.826 52.3847C144.801 52.4 144.772 52.4077 144.743 52.4072H142.687V58.746C142.688 58.7743 142.68 58.8022 142.665 58.826C142.645 58.8519 142.618 58.8707 142.586 58.8793C142.537 58.8951 142.487 58.9064 142.436 58.913C142.359 58.9236 142.28 58.9283 142.202 58.927C142.124 58.928 142.047 58.9234 141.97 58.913C141.918 58.9067 141.867 58.8954 141.817 58.8793C141.786 58.8707 141.758 58.8519 141.739 58.826C141.723 58.8022 141.716 58.7743 141.716 58.746V52.4072H139.661C139.632 52.4077 139.603 52.4 139.578 52.3847C139.552 52.3677 139.531 52.3433 139.519 52.3145C139.502 52.2737 139.489 52.2308 139.483 52.1868C139.472 52.1256 139.468 52.0636 139.469 52.0015C139.468 51.9381 139.473 51.8747 139.483 51.812C139.489 51.7663 139.502 51.7215 139.519 51.6787C139.531 51.6492 139.552 51.6239 139.578 51.6057C139.603 51.5905 139.632 51.5827 139.661 51.5833H144.743C144.772 51.5827 144.801 51.5905 144.826 51.6057C144.852 51.624 144.874 51.6492 144.887 51.6787C144.907 51.7208 144.919 51.7659 144.924 51.812C144.931 51.8749 144.935 51.9382 144.935 52.0015Z" fill="white"/>
<path d="M149.891 58.4919C149.892 58.5515 149.888 58.6111 149.879 58.6702C149.875 58.7149 149.861 58.7582 149.84 58.7979C149.825 58.8273 149.803 58.8524 149.776 58.8709C149.751 58.8859 149.723 58.8937 149.694 58.8933H146.187C146.097 58.8922 146.011 58.8616 145.941 58.8063C145.899 58.7676 145.866 58.7195 145.846 58.6658C145.826 58.6122 145.818 58.5545 145.825 58.4975V51.9777C145.818 51.9209 145.826 51.8635 145.846 51.8101C145.866 51.7566 145.899 51.7088 145.941 51.6703C146.011 51.6149 146.097 51.5843 146.187 51.5833H149.653C149.683 51.5827 149.711 51.5905 149.736 51.6057C149.762 51.6239 149.783 51.6492 149.795 51.6787C149.812 51.7197 149.825 51.7626 149.832 51.8064C149.842 51.869 149.847 51.9325 149.846 51.9959C149.847 52.0552 149.842 52.1144 149.832 52.1728C149.825 52.2158 149.813 52.2578 149.795 52.2977C149.783 52.3264 149.762 52.3509 149.736 52.3679C149.711 52.3831 149.683 52.3909 149.653 52.3903H146.804V54.6839H149.255C149.284 54.6841 149.313 54.6934 149.336 54.7105C149.362 54.7288 149.383 54.7528 149.398 54.7807C149.418 54.8193 149.43 54.8612 149.435 54.9042C149.443 54.9661 149.447 55.0285 149.446 55.0909C149.447 55.1496 149.443 55.2083 149.435 55.2664C149.43 55.308 149.417 55.3484 149.398 55.3857C149.384 55.4126 149.363 55.435 149.336 55.4502C149.311 55.4632 149.283 55.4699 149.255 55.4699H146.804V58.0863H149.701C149.73 58.0859 149.758 58.0937 149.783 58.1087C149.81 58.1261 149.832 58.1503 149.847 58.1789C149.869 58.2174 149.882 58.2599 149.886 58.3038C149.893 58.3663 149.894 58.4292 149.891 58.4919Z" fill="white"/>
<path d="M159.26 58.7459C159.261 58.7743 159.253 58.8022 159.238 58.826C159.217 58.8516 159.188 58.8702 159.156 58.8793C159.108 58.8948 159.058 58.9061 159.008 58.913C158.929 58.9237 158.851 58.9284 158.772 58.927C158.695 58.928 158.618 58.9234 158.542 58.913C158.49 58.9065 158.44 58.8952 158.39 58.8793C158.359 58.8703 158.332 58.8516 158.312 58.826C158.296 58.8022 158.288 58.7743 158.289 58.7459V52.3847H158.278L155.702 58.781C155.691 58.8067 155.675 58.8297 155.654 58.8484C155.628 58.8702 155.597 58.8864 155.564 58.8961C155.519 58.9103 155.472 58.9197 155.424 58.9242C155.359 58.9303 155.294 58.9331 155.229 58.9326C155.161 58.9337 155.093 58.9299 155.026 58.9214C154.978 58.9158 154.931 58.9054 154.885 58.8905C154.853 58.8805 154.823 58.8643 154.797 58.8428C154.779 58.8255 154.764 58.8045 154.755 58.781L152.291 52.3847V58.7516C152.292 58.7799 152.284 58.8078 152.269 58.8316C152.248 58.8576 152.219 58.8763 152.187 58.8849C152.138 58.9005 152.087 58.9118 152.036 58.9186C151.957 58.9293 151.877 58.934 151.797 58.9326C151.719 58.9338 151.642 58.9291 151.564 58.9186C151.514 58.912 151.464 58.9007 151.416 58.8849C151.385 58.8762 151.358 58.8574 151.34 58.8316C151.327 58.807 151.32 58.7795 151.32 58.7516V52.024C151.314 51.9615 151.322 51.8984 151.344 51.8395C151.366 51.7807 151.401 51.7276 151.447 51.6843C151.525 51.6189 151.625 51.5832 151.727 51.5832H152.323C152.431 51.5817 152.539 51.593 152.645 51.6169C152.731 51.6372 152.813 51.6734 152.886 51.7236C152.956 51.7731 153.014 51.8367 153.057 51.9103C153.107 51.9939 153.148 52.0829 153.178 52.1756L155.267 57.4701H155.296L157.47 52.1924C157.508 52.0947 157.555 52.0007 157.61 51.9117C157.654 51.8402 157.71 51.7762 157.774 51.7222C157.833 51.676 157.9 51.6417 157.972 51.6211C158.054 51.5991 158.139 51.5887 158.225 51.5903H158.85C158.906 51.59 158.961 51.5985 159.013 51.6155C159.063 51.6313 159.108 51.6582 159.145 51.6941C159.184 51.7347 159.214 51.7823 159.235 51.8345C159.259 51.8986 159.27 51.9668 159.269 52.0352L159.26 58.7459Z" fill="white"/>
<path d="M164.966 56.8426C164.972 57.158 164.907 57.4707 164.777 57.7578C164.654 58.0206 164.475 58.253 164.252 58.4385C164.019 58.6299 163.75 58.7731 163.461 58.8596C163.142 58.9558 162.811 59.0031 162.479 59C162.25 59.0016 162.022 58.9804 161.798 58.9368C161.607 58.9013 161.42 58.8506 161.237 58.7852C161.095 58.7338 160.957 58.6714 160.825 58.5986C160.741 58.5537 160.663 58.4985 160.593 58.4343C160.548 58.385 160.516 58.3259 160.498 58.2617C160.474 58.1701 160.464 58.0755 160.467 57.981C160.465 57.912 160.469 57.843 160.478 57.7746C160.483 57.7292 160.494 57.6848 160.512 57.6427C160.523 57.6136 160.542 57.5887 160.568 57.5711C160.592 57.5577 160.62 57.551 160.648 57.5515C160.729 57.5633 160.806 57.5968 160.871 57.6483C161.154 57.8315 161.462 57.9732 161.786 58.0694C162.025 58.1394 162.273 58.173 162.522 58.1691C162.719 58.1712 162.914 58.1428 163.102 58.0848C163.266 58.033 163.419 57.9512 163.553 57.8434C163.679 57.741 163.778 57.6108 163.844 57.463C163.913 57.3009 163.948 57.1258 163.945 56.9493C163.951 56.7621 163.902 56.5773 163.805 56.4173C163.705 56.2661 163.579 56.1347 163.431 56.0299C163.265 55.9123 163.089 55.8104 162.904 55.7253L162.296 55.4446C162.089 55.3486 161.887 55.2417 161.692 55.1246C161.5 55.0106 161.323 54.8723 161.167 54.7133C161.01 54.5496 160.882 54.3596 160.791 54.1519C160.691 53.9097 160.643 53.6489 160.651 53.3869C160.645 53.1058 160.702 52.8269 160.816 52.57C160.923 52.337 161.082 52.1312 161.279 51.9678C161.487 51.8007 161.725 51.6753 161.981 51.5987C162.267 51.5113 162.564 51.4682 162.863 51.4709C163.027 51.4711 163.191 51.4852 163.353 51.5131C163.51 51.5403 163.664 51.5783 163.816 51.6267C163.949 51.6684 164.078 51.7215 164.202 51.7854C164.282 51.8218 164.357 51.869 164.425 51.9257C164.452 51.951 164.476 51.9798 164.496 52.0113C164.509 52.0363 164.518 52.0627 164.524 52.09C164.532 52.1279 164.538 52.1664 164.541 52.205C164.541 52.2514 164.541 52.3089 164.541 52.3805C164.542 52.441 164.539 52.5014 164.533 52.5616C164.529 52.6091 164.521 52.6561 164.508 52.7019C164.499 52.732 164.483 52.7592 164.46 52.7805C164.44 52.7971 164.414 52.8061 164.388 52.8058C164.318 52.7948 164.251 52.7679 164.193 52.7272C164.105 52.6739 163.997 52.6149 163.869 52.5489C163.723 52.4756 163.571 52.415 163.415 52.3679C163.223 52.311 163.024 52.2836 162.824 52.2865C162.644 52.2824 162.464 52.31 162.293 52.3679C162.156 52.4152 162.029 52.4892 161.92 52.5854C161.824 52.6752 161.748 52.7855 161.7 52.9083C161.651 53.0339 161.626 53.1678 161.627 53.3027C161.622 53.488 161.671 53.6709 161.767 53.829C161.867 53.981 161.994 54.113 162.142 54.2178C162.31 54.3383 162.489 54.4426 162.677 54.5295L163.285 54.8102C163.493 54.9056 163.697 55.0123 163.896 55.126C164.091 55.2377 164.27 55.3746 164.429 55.533C164.588 55.6929 164.717 55.8809 164.808 56.0875C164.915 56.3248 164.969 56.5824 164.966 56.8426Z" fill="white"/>
<path d="M142.071 0.0575562H137.742L131.859 5.92471C131.202 5.61014 130.482 5.44706 129.754 5.44748C128.669 5.44444 127.613 5.79961 126.751 6.45792C125.888 7.11622 125.267 8.04087 124.983 9.08847C124.699 10.1361 124.769 11.2481 125.181 12.2521C125.593 13.2561 126.325 14.0959 127.263 14.6414C128.201 15.1869 129.293 15.4075 130.369 15.2691C131.445 15.1306 132.445 14.6408 133.215 13.8757C133.984 13.1105 134.48 12.1128 134.625 11.0371C134.77 9.96141 134.556 8.86795 134.016 7.92628L142.071 0.0575562ZM129.761 13.2516C129.189 13.2516 128.63 13.0819 128.154 12.764C127.679 12.4461 127.308 11.9942 127.089 11.4655C126.87 10.9368 126.813 10.3551 126.925 9.79388C127.037 9.23268 127.312 8.71722 127.717 8.3127C128.121 7.90818 128.637 7.63277 129.198 7.5213C129.759 7.40984 130.34 7.46733 130.869 7.6865C131.397 7.90567 131.848 8.27668 132.166 8.75259C132.484 9.22851 132.653 9.78795 132.653 10.3602C132.651 11.1267 132.346 11.8613 131.804 12.4031C131.262 12.9449 130.527 13.2495 129.761 13.2502V13.2516Z" fill="#B8F600"/>
<path d="M158.954 36.9869C159.518 35.9462 159.69 34.7377 159.44 33.5808C159.189 32.4239 158.532 31.3951 157.589 30.6811C156.645 29.9671 155.476 29.6152 154.295 29.6892C153.115 29.7632 151.999 30.2583 151.152 31.0845C150.304 31.9108 149.781 33.0135 149.677 34.1927C149.573 35.3718 149.894 36.5493 150.584 37.5115C151.273 38.4738 152.284 39.157 153.434 39.4372C154.583 39.7175 155.795 39.5762 156.85 39.039L162.89 45.0859C163.393 44.9608 163.852 44.6974 164.214 44.3254C164.576 43.9533 164.827 43.4875 164.938 42.9804L158.954 36.9869ZM151.736 34.6555C151.736 34.0834 151.905 33.524 152.223 33.0483C152.541 32.5726 152.992 32.2018 153.521 31.9828C154.049 31.7639 154.63 31.7066 155.191 31.8182C155.752 31.9298 156.268 32.2054 156.672 32.6099C157.076 33.0145 157.352 33.53 157.463 34.0911C157.575 34.6523 157.518 35.234 157.299 35.7626C157.08 36.2912 156.709 36.743 156.234 37.0608C155.758 37.3787 155.199 37.5484 154.627 37.5484C153.861 37.5476 153.125 37.2426 152.583 36.7003C152.041 36.1579 151.736 35.4225 151.736 34.6555Z" fill="#B8F600"/>
<path d="M154.627 5.44046C153.326 5.44306 152.078 5.96148 151.158 6.88222C150.237 7.80297 149.719 9.05102 149.717 10.3532C149.717 11.0819 149.88 11.8014 150.195 12.4586L131.968 30.2678C130.917 29.7401 129.712 29.6069 128.572 29.8925C127.432 30.1781 126.432 30.8635 125.753 31.8241C125.075 32.7848 124.764 33.9569 124.876 35.1276C124.989 36.2983 125.517 37.3898 126.366 38.2038C127.214 39.0179 128.326 39.5004 129.5 39.5637C130.674 39.6271 131.832 39.267 132.763 38.549C133.694 37.831 134.336 36.8026 134.574 35.6508C134.811 34.499 134.628 33.3002 134.057 32.2722L152.145 14.5963C152.796 14.9764 153.526 15.2014 154.278 15.2539C155.03 15.3064 155.784 15.185 156.482 14.899C157.18 14.6131 157.802 14.1703 158.301 13.6049C158.8 13.0396 159.162 12.3669 159.36 11.639C159.557 10.9111 159.584 10.1475 159.439 9.40741C159.294 8.66732 158.98 7.97059 158.523 7.37122C158.065 6.77184 157.476 6.28592 156.8 5.9511C156.125 5.61628 155.381 5.44155 154.627 5.44046ZM129.761 37.5484C129.189 37.5484 128.63 37.3787 128.154 37.0609C127.679 36.743 127.308 36.2912 127.089 35.7626C126.871 35.234 126.813 34.6523 126.925 34.0912C127.036 33.53 127.312 33.0145 127.716 32.61C128.121 32.2054 128.636 31.9299 129.197 31.8182C129.758 31.7066 130.339 31.7639 130.868 31.9829C131.396 32.2018 131.848 32.5726 132.165 33.0483C132.483 33.5241 132.653 34.0834 132.653 34.6555C132.652 35.4225 132.347 36.1579 131.805 36.7003C131.263 37.2426 130.528 37.5477 129.761 37.5484ZM154.627 13.2502C154.055 13.2502 153.496 13.0805 153.021 12.7626C152.545 12.4447 152.174 11.9928 151.956 11.4641C151.737 10.9354 151.68 10.3537 151.791 9.79248C151.903 9.23127 152.178 8.71582 152.583 8.3113C152.988 7.90678 153.503 7.63137 154.064 7.51991C154.625 7.40844 155.206 7.46593 155.735 7.6851C156.263 7.90427 156.715 8.27527 157.032 8.75119C157.35 9.2271 157.519 9.78655 157.519 10.3588C157.518 11.1255 157.213 11.8606 156.671 12.4026C156.129 12.9447 155.394 13.2495 154.627 13.2502Z" fill="#B8F600"/>
</g>
<defs>
<clipPath id="clip0_5_15">
<rect width="165" height="59" fill="white"/>
</clipPath>
</defs>
</svg>
